<svg version="1.1" id="Layer_1" xmlns="http://www.w3.org/2000/svg" xmlns:xlink="http://www.w3.org/1999/xlink" x="0px" y="0px"
	 width="100%" viewBox="0 0 500 500" enable-background="new 0 0 500 500" xml:space="preserve">
<path fill="#000000" opacity="1.000000" stroke="none" 
	d="
M317.000000,501.000000 
	C211.333359,501.000000 106.166718,501.000000 1.000057,501.000000 
	C1.000038,334.333405 1.000038,167.666794 1.000019,1.000146 
	C167.666565,1.000097 334.333130,1.000097 500.999756,1.000049 
	C500.999847,167.666519 500.999847,334.333038 500.999939,500.999786 
	C439.833344,501.000000 378.666656,501.000000 317.000000,501.000000 
M309.499939,408.836487 
	C319.263336,408.836487 329.026764,408.836487 339.092834,408.836487 
	C339.092834,371.941559 339.092834,335.676483 339.092834,299.000305 
	C341.010132,299.000305 342.637146,299.002319 344.264191,299.000000 
	C358.927032,298.979309 373.593994,299.172913 388.251923,298.893158 
	C421.869751,298.251587 453.616730,270.480469 456.711853,237.046738 
	C458.653625,216.071320 459.058533,194.672485 457.320984,173.698227 
	C454.070099,134.455322 423.962921,107.404305 384.626770,106.942665 
	C345.641785,106.485138 306.647186,106.843399 267.656799,106.861008 
	C267.210388,106.861214 266.764099,107.090828 266.319031,107.213005 
	C266.319031,207.737701 266.319031,308.115295 266.319031,408.836487 
	C280.571045,408.836487 294.535461,408.836487 309.499939,408.836487 
M213.500183,111.489326 
	C196.905731,111.489326 180.311279,111.489326 163.266251,111.489326 
	C163.266251,148.067825 163.266251,183.957001 163.266251,220.218903 
	C138.892807,220.218903 114.974022,220.218903 90.823044,220.218903 
	C90.823044,244.680176 90.823044,268.763763 90.823044,293.238159 
	C115.004005,293.238159 138.941681,293.238159 163.130630,293.238159 
	C163.130630,308.533905 163.130630,323.439209 163.130630,338.829712 
	C161.135864,338.829712 159.340271,338.828064 157.544662,338.829926 
	C128.055023,338.860382 98.561302,338.603241 69.077148,339.021271 
	C48.723942,339.309814 30.909128,354.535828 28.079916,374.592316 
	C26.510851,385.715576 27.294731,397.172485 27.063934,408.479950 
	C27.041862,409.561310 27.346741,410.649414 27.481300,411.603027 
	C97.093796,411.603027 166.344788,411.603027 235.715088,411.603027 
	C235.715088,311.516998 235.715088,211.666702 235.715088,111.489365 
	C228.450592,111.489365 221.475342,111.489365 213.500183,111.489326 
z"/>
<path fill="#FFFFFF" opacity="1.000000" stroke="none" 
	d="
M308.999908,408.836487 
	C294.535461,408.836487 280.571045,408.836487 266.319031,408.836487 
	C266.319031,308.115295 266.319031,207.737701 266.319031,107.213005 
	C266.764099,107.090828 267.210388,106.861214 267.656799,106.861008 
	C306.647186,106.843399 345.641785,106.485138 384.626770,106.942665 
	C423.962921,107.404305 454.070099,134.455322 457.320984,173.698227 
	C459.058533,194.672485 458.653625,216.071320 456.711853,237.046738 
	C453.616730,270.480469 421.869751,298.251587 388.251923,298.893158 
	C373.593994,299.172913 358.927032,298.979309 344.264191,299.000000 
	C342.637146,299.002319 341.010132,299.000305 339.092834,299.000305 
	C339.092834,335.676483 339.092834,371.941559 339.092834,408.836487 
	C329.026764,408.836487 319.263336,408.836487 308.999908,408.836487 
M381.274414,179.994888 
	C367.203949,179.994888 353.133484,179.994888 339.303833,179.994888 
	C339.303833,195.666992 339.303833,210.594070 339.303833,225.588074 
	C354.509735,225.588074 369.421112,225.588074 384.820251,225.588074 
	C384.820251,210.896011 384.855316,196.449783 384.710297,182.005341 
	C384.703461,181.327194 383.092773,180.665161 381.274414,179.994888 
z"/>
<path fill="#FEFEFE" opacity="1.000000" stroke="none" 
	d="
M214.000153,111.489349 
	C221.475342,111.489365 228.450592,111.489365 235.715088,111.489365 
	C235.715088,211.666702 235.715088,311.516998 235.715088,411.603027 
	C166.344788,411.603027 97.093796,411.603027 27.481300,411.603027 
	C27.346741,410.649414 27.041862,409.561310 27.063934,408.479950 
	C27.294731,397.172485 26.510851,385.715576 28.079916,374.592316 
	C30.909128,354.535828 48.723942,339.309814 69.077148,339.021271 
	C98.561302,338.603241 128.055023,338.860382 157.544662,338.829926 
	C159.340271,338.828064 161.135864,338.829712 163.130630,338.829712 
	C163.130630,323.439209 163.130630,308.533905 163.130630,293.238159 
	C138.941681,293.238159 115.004005,293.238159 90.823044,293.238159 
	C90.823044,268.763763 90.823044,244.680176 90.823044,220.218903 
	C114.974022,220.218903 138.892807,220.218903 163.266251,220.218903 
	C163.266251,183.957001 163.266251,148.067825 163.266251,111.489326 
	C180.311279,111.489326 196.905731,111.489326 214.000153,111.489349 
z"/>
<path fill="#030303" opacity="1.000000" stroke="none" 
	d="
M381.751709,179.995255 
	C383.092773,180.665161 384.703461,181.327194 384.710297,182.005341 
	C384.855316,196.449783 384.820251,210.896011 384.820251,225.588074 
	C369.421112,225.588074 354.509735,225.588074 339.303833,225.588074 
	C339.303833,210.594070 339.303833,195.666992 339.303833,179.994888 
	C353.133484,179.994888 367.203949,179.994888 381.751709,179.995255 
z"/>
</svg>